<svg width="16.000000" height="16.000000" viewBox="0 0 16 16" fill="none" xmlns="http://www.w3.org/2000/svg" xmlns:xlink="http://www.w3.org/1999/xlink">
	<desc>
			Created with Pixso.
	</desc>
	<defs/>
	<g opacity="0.000000">
		<path id="Vector" d="M16 16L0 16L0 0L16 0L16 16Z" fill="#000000" fill-opacity="1.000000" fill-rule="evenodd"/>
	</g>
	<path id="Vector" d="M8.93 8L11.8 5.14C11.93 5.01 12 4.84 12 4.66C12 4.48 11.93 4.31 11.8 4.19C11.68 4.06 11.51 3.99 11.33 3.99C11.15 3.99 10.98 4.06 10.86 4.19L7.99 7.06L5.13 4.19C5.01 4.06 4.84 3.99 4.66 3.99C4.48 3.99 4.31 4.06 4.19 4.19C4.06 4.31 3.99 4.48 3.99 4.66C3.99 4.84 4.06 5.01 4.19 5.14L7.05 8L4.19 10.86C4.13 10.92 4.08 10.99 4.04 11.07C4.01 11.15 3.99 11.24 3.99 11.33C3.99 11.42 4.01 11.5 4.04 11.58C4.08 11.67 4.13 11.74 4.19 11.8C4.25 11.86 4.32 11.91 4.41 11.95C4.49 11.98 4.57 12 4.66 12C4.75 12 4.84 11.98 4.92 11.95C5 11.91 5.07 11.86 5.13 11.8L7.99 8.94L10.86 11.8C10.92 11.86 10.99 11.91 11.07 11.95C11.15 11.98 11.24 12 11.33 12C11.42 12 11.5 11.98 11.58 11.95C11.67 11.91 11.74 11.86 11.8 11.8C11.86 11.74 11.91 11.67 11.95 11.58C11.98 11.5 12 11.42 12 11.33C12 11.24 11.98 11.15 11.95 11.07C11.91 10.99 11.86 10.92 11.8 10.86L8.93 8Z" fill="#FFFFFF" fill-opacity="1.000000" fill-rule="nonzero"/>
</svg>
