<svg width="20.000000" height="20.000000" viewBox="0 0 20 20" fill="none" xmlns="http://www.w3.org/2000/svg" xmlns:xlink="http://www.w3.org/1999/xlink">
	<desc>
			Created with Pixso.
	</desc>
	<defs>
		<clipPath id="clip5661_2355">
			<rect id="eye-outline" rx="0.000000" width="19.000000" height="19.000000" transform="translate(0.500000 0.500000)" fill="white" fill-opacity="0"/>
		</clipPath>
	</defs>
	<rect id="eye-outline" rx="0.000000" width="19.000000" height="19.000000" transform="translate(0.500000 0.500000)" fill="#FFFFFF" fill-opacity="0"/>
	<g clip-path="url(#clip5661_2355)">
		<g opacity="0.000000">
			<path id="Vector" d="M0 0L20 0L20 20L0 20L0 0Z" fill="#FFFFFF" fill-opacity="1.000000" fill-rule="evenodd"/>
		</g>
		<path id="Vector" d="M18.22 9.58C17.69 8.65 14.75 4.01 9.77 4.16C5.16 4.28 2.49 8.33 1.77 9.58C1.7 9.71 1.66 9.85 1.66 10C1.66 10.14 1.7 10.29 1.77 10.41C2.29 11.32 5.1 15.83 10.01 15.83L10.22 15.83C14.83 15.71 17.5 11.66 18.22 10.41C18.29 10.29 18.33 10.14 18.33 10C18.33 9.85 18.29 9.71 18.22 9.58ZM10.18 14.16C6.59 14.25 4.24 11.17 3.51 10C4.34 8.65 6.52 5.91 9.85 5.83C13.43 5.74 15.78 8.82 16.52 10C15.66 11.34 13.51 14.08 10.18 14.16Z" fill="#FFFFFF" fill-opacity="1.000000" fill-rule="nonzero"/>
		<path id="Vector" d="M10 7.08C9.42 7.08 8.85 7.25 8.37 7.57C7.89 7.89 7.52 8.35 7.3 8.88C7.08 9.41 7.02 10 7.13 10.56C7.25 11.13 7.52 11.65 7.93 12.06C8.34 12.47 8.86 12.74 9.43 12.86C9.99 12.97 10.58 12.91 11.11 12.69C11.64 12.47 12.1 12.1 12.42 11.62C12.74 11.14 12.91 10.57 12.91 10C12.91 9.22 12.6 8.48 12.06 7.93C11.51 7.39 10.77 7.08 10 7.08ZM10 11.25C9.75 11.25 9.51 11.17 9.3 11.03C9.1 10.9 8.93 10.7 8.84 10.47C8.75 10.25 8.72 9.99 8.77 9.75C8.82 9.51 8.94 9.29 9.11 9.11C9.29 8.94 9.51 8.82 9.75 8.77C9.99 8.72 10.25 8.75 10.47 8.84C10.7 8.93 10.9 9.09 11.03 9.3C11.17 9.51 11.25 9.75 11.25 10C11.25 10.33 11.11 10.64 10.88 10.88C10.64 11.11 10.33 11.25 10 11.25Z" fill="#FFFFFF" fill-opacity="1.000000" fill-rule="nonzero"/>
	</g>
</svg>
